<?xml version="1.0" encoding="utf-8"?>
<!-- Generator: Adobe Illustrator 22.1.0, SVG Export Plug-In . SVG Version: 6.00 Build 0)  -->
<svg version="1.1" id="_x31_dd0e371-c089-4d00-85f2-e4c01fb26f4a"
	 xmlns="http://www.w3.org/2000/svg" xmlns:xlink="http://www.w3.org/1999/xlink" x="0px" y="0px" viewBox="0 0 590.8 176.7"
	 style="enable-background:new 0 0 590.8 176.7;" xml:space="preserve">
<style type="text/css">
	.st0{fill:#FFFFFF;}
</style>
<title>Athelyn logo colour</title>
<polygon class="st0" points="21.1,156 21.1,21.1 444.7,21.1 456.4,0 0,0 0,176.7 117.5,176.7 108.6,156 "/>
<polygon class="st0" points="473.9,43 473.9,132.5 496.6,132.5 496.6,91 546.2,134 546.7,134 546.7,44.6 524,44.6 524,86.1 
	474.3,43 "/>
<polygon class="st0" points="112.3,64.5 139.1,64.5 139.1,132.2 161.8,132.2 161.8,64.5 188.6,64.5 188.6,44.6 112.3,44.6 "/>
<polygon class="st0" points="249.4,77.1 219.8,77.1 219.8,44.6 197.1,44.6 197.1,132.4 219.8,132.4 219.8,97.8 249.4,97.8 
	249.4,132.4 272.1,132.4 272.1,44.6 249.4,44.6 "/>
<polygon class="st0" points="303.7,97.4 334.4,97.4 334.4,78.4 303.7,78.4 303.7,65.3 339.5,65.3 339.5,44.6 281,44.6 281,132.5 
	340.4,132.5 340.4,111.8 303.7,111.8 "/>
<polygon class="st0" points="371,44.6 348.3,44.6 348.3,132.5 405.2,132.5 405.2,112.5 371,112.5 "/>
<path class="st0" d="M590.8,0H467.7l-42.2,75l-16.6-30.4h-26.5l31.8,53.2v34.7h22.7V97.4l45-76.3h88.3l0.2,134.9H144.8L90.2,41.6
	h-0.5l-44.6,90.9h25.5l4.7-11.7h29.4l24.1,55.9h462V0z M81.9,103.8L90,83.2l8,20.6L81.9,103.8z"/>
</svg>
